<?xml version="1.0" encoding="utf-8"?>
<!-- Generator: Adobe Illustrator 16.0.0, SVG Export Plug-In . SVG Version: 6.00 Build 0)  -->
<!DOCTYPE svg PUBLIC "-//W3C//DTD SVG 1.1//EN" "http://www.w3.org/Graphics/SVG/1.1/DTD/svg11.dtd">
<svg version="1.1" id="Layer_1" xmlns="http://www.w3.org/2000/svg" xmlns:xlink="http://www.w3.org/1999/xlink" x="0px" y="0px"
	 width="1000px" height="1000px" viewBox="0 0 1000 1000" enable-background="new 0 0 1000 1000" xml:space="preserve">
<path fill="#B1B3A9" d="M591.414,512.523c-18.234-6-44.484-4.711-78.75-4.711H375V687.5h147.219c23,0,39.156-2.461,48.461-4.18
	c16.398-2.938,30.109-8.625,41.125-15.484c11.008-6.844,20.062-17.227,27.172-30.32c7.094-13.094,10.648-28.414,10.648-45.547
	c0-20.062-5.141-35.469-15.43-50.281C623.914,526.875,609.656,518.523,591.414,512.523z M572.516,430.367
	c18.102-5.375,31.75-14.766,40.93-27.242c9.188-12.484,13.773-28.367,13.773-47.219c0-17.859-4.289-33.703-12.859-47.297
	s-20.797-18.852-36.711-23.875c-15.914-5.008-43.203-3.484-81.875-3.484H375V437.5h129.586
	C536.164,437.5,558.797,434.531,572.516,430.367L572.516,430.367z M984.375,145.508c0-71.734-58.148-129.883-129.883-129.883
	H137.695c-71.734,0-129.883,58.148-129.883,129.883v716.797c0,71.734,58.148,129.883,129.883,129.883h716.797
	c71.734,0,129.883-58.148,129.883-129.883V145.508z M707.445,662.07c-10.641,21.664-23.805,38.367-39.469,50.117
	c-15.672,11.75-35.32,21.719-58.938,27.719C585.43,745.914,556.477,750,522.219,750H304.688V210.938h214.219
	c41.125,0,74.102,4.758,98.945,15.641c24.852,10.898,44.305,27.32,58.391,49.961c14.07,22.641,21.109,46.148,21.109,70.867
	c0,23.008-6.25,44.594-18.727,64.906c-12.484,20.328-31.336,36.672-56.539,49.156c32.547,9.547,57.578,25.812,75.078,48.812
	c17.5,23.008,26.25,50.172,26.25,81.5C723.414,616.992,718.094,640.414,707.445,662.07L707.445,662.07z"/>
</svg>
