<?xml version="1.0" encoding="utf-8"?>
<!-- Generator: Adobe Illustrator 16.0.0, SVG Export Plug-In . SVG Version: 6.00 Build 0)  -->
<!DOCTYPE svg PUBLIC "-//W3C//DTD SVG 1.1//EN" "http://www.w3.org/Graphics/SVG/1.1/DTD/svg11.dtd">
<svg version="1.1" id="Layer_1" xmlns="http://www.w3.org/2000/svg" xmlns:xlink="http://www.w3.org/1999/xlink" x="0px" y="0px"
	 width="1000px" height="1000px" viewBox="0 0 1000 1000" enable-background="new 0 0 1000 1000" xml:space="preserve">
<circle fill="#B1B3A9" cx="497.062" cy="503.703" r="176.828"/>
<path fill="#B1B3A9" d="M500,289.062h423.328C845.641,132.812,683.953,26.305,497.062,26.305
	c-151.305,0-286.086,71.664-373.156,181.805L288.93,487.391C296.992,378.75,375,289.609,500,289.062z M938.484,320.312H611.672
	c57.836,46.875,96.086,108.469,96.086,182.57c0,36.43-9.242,67.43-25.531,106.492h0.117l-216.852,371.18
	c10.43,0.68,20.953-0.172,31.562-0.172c262.57,0,475.43-216.766,475.43-479.336C972.492,438.547,960.406,382.812,938.484,320.312z
	 M497.062,714.414c-91.188,0-168.836-57.922-198.188-138.977L102.109,238.945c-50.82,75.672-80.492,166.758-80.492,264.758
	c0,239.312,176.828,437.281,406.945,470.5l164.031-282.648C563.914,706.172,531.445,714.414,497.062,714.414z"/>
</svg>
