<?xml version="1.0" encoding="utf-8"?>
<!-- Generator: Adobe Illustrator 16.0.0, SVG Export Plug-In . SVG Version: 6.00 Build 0)  -->
<!DOCTYPE svg PUBLIC "-//W3C//DTD SVG 1.1//EN" "http://www.w3.org/Graphics/SVG/1.1/DTD/svg11.dtd">
<svg version="1.1" id="Layer_1" xmlns="http://www.w3.org/2000/svg" xmlns:xlink="http://www.w3.org/1999/xlink" x="0px" y="0px"
	 width="1000px" height="1000px" viewBox="0 0 1000 1000" enable-background="new 0 0 1000 1000" xml:space="preserve">
<path fill="#B1B3A9" d="M68.438,7.812l78.555,881.898l352.484,98.281l353.469-98.641L931.562,7.812H68.438L68.438,7.812z
	 M768.367,209.859l-26.148,293.789l0.078,1.586l-0.109,3.648v-0.031l-18.578,205.422l-2.047,18.25L500,793.805v0.008l-0.172,0.148
	l-221.18-61.625L263.672,562.5h108.461l7.695,86.359l120.203,32.578L500,681.5v-0.016l120.648-33.039l12.75-140.633H381.188
	l-2.164-23.773l-4.93-55.695l-2.586-29.906h271.477l9.875-109.375H239.375l-2.164-23.758l-4.922-55.711l-2.594-29.906h541.258
	L768.367,209.859L768.367,209.859z"/>
</svg>
