<?xml version="1.0" encoding="utf-8"?>
<!-- Generator: Adobe Illustrator 16.0.0, SVG Export Plug-In . SVG Version: 6.00 Build 0)  -->
<!DOCTYPE svg PUBLIC "-//W3C//DTD SVG 1.1//EN" "http://www.w3.org/Graphics/SVG/1.1/DTD/svg11.dtd">
<svg version="1.1" id="Layer_1" xmlns="http://www.w3.org/2000/svg" xmlns:xlink="http://www.w3.org/1999/xlink" x="0px" y="0px"
	 width="1000px" height="1000px" viewBox="0 0 1000 1000" enable-background="new 0 0 1000 1000" xml:space="preserve">
<g>
	<path fill="#B1B3A9" d="M500,39.867c-260.523,0-471.781,211.211-471.781,471.781c0,208.453,135.18,385.289,322.633,447.68
		c23.57,4.375,32.227-10.234,32.227-22.695c0-11.25-0.438-48.414-0.641-87.836c-131.25,28.539-158.945-55.664-158.945-55.664
		c-21.461-54.531-52.383-69.031-52.383-69.031c-42.812-29.281,3.227-28.672,3.227-28.672c47.367,3.32,72.32,48.617,72.32,48.617
		c42.078,72.109,110.367,51.266,137.289,39.219c4.234-30.492,16.461-51.312,29.953-63.094
		c-104.789-11.914-214.953-52.375-214.953-233.148c0-51.508,18.438-93.594,48.617-126.641
		c-4.906-11.875-21.055-59.859,4.562-124.844c0,0,39.609-12.68,129.766,48.359C419.531,273.438,459.898,268.18,500,268
		c40.078,0.18,80.469,5.422,118.18,15.883c90.047-61.039,129.609-48.359,129.609-48.359c25.68,64.977,9.531,112.969,4.633,124.844
		c30.25,33.047,48.555,75.133,48.555,126.641c0,181.203-110.367,221.094-215.422,232.781c16.93,14.641,32.008,43.359,32.008,87.367
		c0,63.125-0.547,113.93-0.547,129.469c0,12.555,8.5,27.266,32.406,22.633c187.344-62.453,322.367-239.234,322.367-447.609
		C971.781,251.094,760.547,39.875,500,39.875V39.867z"/>
	<path fill="#B1B3A9" d="M206.906,717.234c-1.039,2.344-4.727,3.047-8.086,1.445c-3.438-1.531-5.352-4.727-4.242-7.078
		c1.016-2.422,4.711-3.086,8.125-1.469c3.438,1.539,5.391,4.766,4.195,7.109L206.906,717.234z M226.016,738.555
		c-2.242,2.086-6.641,1.117-9.625-2.188c-3.094-3.281-3.672-7.68-1.383-9.797c2.328-2.078,6.594-1.094,9.688,2.188
		c3.078,3.328,3.688,7.688,1.328,9.805L226.016,738.555z M244.625,765.719c-2.891,2.016-7.625,0.133-10.547-4.062
		c-2.891-4.203-2.891-9.242,0.078-11.25c2.914-2.016,7.578-0.195,10.547,3.961c2.875,4.258,2.875,9.297-0.078,11.344V765.719z
		 M270.102,791.977c-2.578,2.852-8.094,2.086-12.125-1.797c-4.117-3.805-5.266-9.219-2.68-12.062
		c2.625-2.859,8.164-2.062,12.219,1.797c4.117,3.797,5.359,9.219,2.602,12.055L270.102,791.977z M305.258,807.219
		c-1.148,3.695-6.445,5.375-11.797,3.797c-5.336-1.617-8.828-5.938-7.734-9.672c1.094-3.727,6.43-5.469,11.812-3.789
		C302.875,799.164,306.367,803.461,305.258,807.219z M343.875,810.039c0.133,3.891-4.398,7.109-10,7.188
		c-5.648,0.133-10.219-3.023-10.273-6.852c0-3.93,4.438-7.109,10.078-7.219c5.602-0.102,10.203,3.023,10.203,6.875L343.875,810.039z
		 M379.797,803.93c0.672,3.789-3.227,7.688-8.797,8.727c-5.469,1.016-10.547-1.344-11.25-5.102
		c-0.672-3.891,3.297-7.789,8.766-8.797c5.578-0.961,10.578,1.328,11.281,5.18V803.93z"/>
</g>
</svg>
