<?xml version="1.0" encoding="utf-8"?>
<!-- Generator: Adobe Illustrator 16.0.0, SVG Export Plug-In . SVG Version: 6.00 Build 0)  -->
<!DOCTYPE svg PUBLIC "-//W3C//DTD SVG 1.1//EN" "http://www.w3.org/Graphics/SVG/1.1/DTD/svg11.dtd">
<svg version="1.1" id="Layer_1" xmlns="http://www.w3.org/2000/svg" xmlns:xlink="http://www.w3.org/1999/xlink" x="0px" y="0px"
	 width="1000px" height="1000px" viewBox="0 0 1000 1000" enable-background="new 0 0 1000 1000" xml:space="preserve">
<path fill="#B1B3A9" d="M70.562,15.625l78.164,875.727l350.75,96.883l351.719-96.773l78.242-875.836H70.562L70.562,15.625z
	 M766.859,222.961l-4.898,56.031l-2.156,25.695H348.359l9.82,109.375h391.844l-2.625,27.117l-25.258,282.18l-1.859,17.734
	L500,801.633v0.016l-0.266,0.141l-220.133-57.992l-14.945-165.672h107.93l7.648,85.305l119.43,31.883H500v-4.266l119.961-30.273
	l12.531-137.336H259.852l-26.43-297.789l-2.57-30.336h538.586L766.859,222.961L766.859,222.961z"/>
</svg>
