<?xml version="1.0" encoding="utf-8"?>
<!-- Generator: Adobe Illustrator 16.0.0, SVG Export Plug-In . SVG Version: 6.00 Build 0)  -->
<!DOCTYPE svg PUBLIC "-//W3C//DTD SVG 1.1//EN" "http://www.w3.org/Graphics/SVG/1.1/DTD/svg11.dtd">
<svg version="1.1" id="Layer_1" xmlns="http://www.w3.org/2000/svg" xmlns:xlink="http://www.w3.org/1999/xlink" x="0px" y="0px"
	 width="1000px" height="1000px" viewBox="0 0 1000 1000" enable-background="new 0 0 1000 1000" xml:space="preserve">
<path fill="#B1B3A9" d="M15.625,7.812v976.562h976.562V7.812H15.625z M532.18,839.945c-14.414,29.289-41.93,48.531-73.812,57.82
	c-48.992,11.25-95.852,4.836-130.711-16.086c-23.328-14.312-41.547-36.344-53.914-61.727l74.375-45.547
	c0.648,0.273,2.602,3.805,5.211,8.367c9.484,15.891,17.664,27.141,33.742,35.039c15.797,5.391,50.477,8.836,63.867-18.961
	c8.18-14.141,5.578-59.594,5.578-109.883c-0.008-79.023,0.359-157.719,0.359-235.844h91.477c0,85.938,0.469,167.328,0,251.188
	C548.547,755.719,553.008,801.547,532.18,839.945L532.18,839.945z M911.664,814.102c-31.797,108.766-209.078,112.297-279.922,40.438
	c-14.969-16.914-24.352-25.75-33.281-45.273c37.648-21.656,37.648-21.656,74.281-42.852c19.898,30.586,38.297,47.406,71.398,54.289
	c44.906,5.484,90.086-9.945,79.953-57.641c-10.414-38.953-91.953-48.43-147.445-90.086
	c-56.336-37.836-69.539-129.773-23.242-182.305c15.43-19.43,41.742-33.93,69.352-40.898l28.812-3.727
	c55.32-1.117,89.898,13.492,115.281,41.836c7.062,7.156,12.828,14.875,23.609,31.602c-29.469,18.781-29.375,18.602-71.586,45.93
	c-9.016-19.422-23.977-31.609-39.789-36.906c-24.547-7.438-55.5,0.648-61.922,26.586c-2.227,7.992-1.766,15.43,1.773,28.633
	c9.945,22.68,43.32,32.539,73.258,46.297c86.18,34.953,115.281,72.43,122.438,117.039
	C921.523,785.469,912.969,810.383,911.664,814.102L911.664,814.102z"/>
</svg>
