<?xml version="1.0" encoding="utf-8"?>
<!-- Generator: Adobe Illustrator 16.0.0, SVG Export Plug-In . SVG Version: 6.00 Build 0)  -->
<!DOCTYPE svg PUBLIC "-//W3C//DTD SVG 1.1//EN" "http://www.w3.org/Graphics/SVG/1.1/DTD/svg11.dtd">
<svg version="1.1" id="Layer_1" xmlns="http://www.w3.org/2000/svg" xmlns:xlink="http://www.w3.org/1999/xlink" x="0px" y="0px"
	 width="1000px" height="1000px" viewBox="0 0 1000 1000" enable-background="new 0 0 1000 1000" xml:space="preserve">
<path fill="#B1B3A9" d="M510.023,835.375c-6.469-1.461-12.758-3.484-19.07-5.352l-4.758-1.445
	c-6.172-1.891-12.289-3.883-18.375-5.977l-2.523-0.914c-5.453-1.914-10.844-3.938-16.203-6.008l-4.547-1.789
	c-5.875-2.32-11.719-4.742-17.484-7.273l-3.492-1.547c-4.961-2.25-9.867-4.516-14.758-6.867l-4.266-2.047
	c-3.836-1.867-7.633-3.852-11.414-5.805c-2.531-1.336-5.109-2.594-7.617-3.984c-4.625-2.477-9.164-5.047-13.68-7.672l-4.617-2.578
	c-6.008-3.531-11.945-7.195-17.812-10.914L344.602,762c-4.266-2.742-8.5-5.539-12.68-8.43l-4.086-2.867
	c-4.031-2.852-8.016-5.734-11.984-8.664l-5.305-4.016c-3.625-2.773-7.242-5.57-10.812-8.453l-4.82-3.867
	c-4.539-3.742-9.031-7.492-13.469-11.352l-1.469-1.242c-4.797-4.211-9.508-8.531-14.156-12.867l-3.984-3.836
	c-3.445-3.281-6.836-6.586-10.172-9.977l-3.984-3.977c-4.242-4.344-8.406-8.742-12.492-13.203l-0.609-0.656
	c-4.32-4.719-8.531-9.539-12.664-14.406l-3.312-3.938c-3.086-3.711-6.133-7.469-9.117-11.266l-3.336-4.156
	c-3.586-4.656-7.094-9.289-10.523-14.016C100.703,491.328,66.594,312.75,142.469,166.094l-67.273,85.32
	C-10.969,375.25-0.242,536.383,65.578,667.977c1.562,3.156,3.211,6.258,4.82,9.359l3.086,5.93l1.914,3.414l3.43,6.141
	c2.047,3.602,4.141,7.188,6.289,10.773l3.578,5.906c2.375,3.836,4.805,7.625,7.297,11.406l3.109,4.797
	c3.422,5.117,6.938,10.227,10.562,15.242l0.305,0.391l1.781,2.406c3.125,4.32,6.359,8.586,9.625,12.805l3.617,4.609
	c2.914,3.664,5.875,7.305,8.898,10.93l3.398,4.062c4.047,4.766,8.18,9.508,12.391,14.156l0.25,0.258l0.484,0.531
	c4.109,4.492,8.328,8.883,12.594,13.273l4.039,4.07c3.305,3.328,6.664,6.602,10.055,9.859l4.109,3.906
	c4.531,4.273,9.109,8.461,13.781,12.555l0.219,0.172l2.398,2.047c4.109,3.562,8.297,7.102,12.523,10.57l5.188,4.133
	c3.445,2.766,6.93,5.484,10.438,8.156l5.578,4.242c3.867,2.852,7.773,5.656,11.711,8.398l4.266,3.023l1.172,0.836
	c3.734,2.57,7.555,5.047,11.375,7.523l4.922,3.281c5.852,3.703,11.797,7.367,17.797,10.906l4.922,2.773
	c4.414,2.547,8.859,5.047,13.367,7.492c2.438,1.312,4.938,2.555,7.391,3.812c3.18,1.664,6.336,3.352,9.57,4.969l2.211,1.07
	l3.914,1.891c5.008,2.391,10.055,4.742,15.156,7.008l3.203,1.438c5.844,2.555,11.734,5.008,17.68,7.352l4.305,1.695
	c5.5,2.117,11.078,4.211,16.68,6.18l2.094,0.727c6.141,2.148,12.352,4.141,18.602,6.086l4.492,1.344
	c6.359,1.914,12.641,4.203,19.203,5.414c416.711,75.992,537.758-250.414,537.758-250.414
	C861.453,839.336,681,874.273,510.023,835.375L510.023,835.375z M359.914,497.633c9.336,13.383,19.688,29.305,32.07,40.055
	c4.492,4.945,9.188,9.773,13.984,14.516l3.688,3.633c4.656,4.516,9.391,8.953,14.281,13.266l0.578,0.5l0.141,0.141
	c5.414,4.75,11,9.305,16.68,13.805l3.781,2.953c5.695,4.367,11.5,8.648,17.445,12.742l0.508,0.383c2.625,1.812,5.305,3.5,7.969,5.25
	l3.766,2.492c4.25,2.727,8.562,5.383,12.938,7.93l1.828,1.062c3.773,2.172,7.602,4.312,11.43,6.391l4.07,2.117
	c2.648,1.383,5.297,2.797,8,4.141l1.211,0.547c5.484,2.703,11.023,5.312,16.688,7.773l3.688,1.516
	c4.516,1.922,9.086,3.797,13.672,5.547l5.859,2.148c4.164,1.547,8.344,2.953,12.562,4.367l5.68,1.82
	c5.992,1.859,11.914,4.211,18.156,5.25c321.742,53.305,396.016-194.422,396.016-194.422
	C919.648,559.984,789.977,606,651.609,570.078c-6.148-1.617-12.203-3.367-18.227-5.266l-5.469-1.773
	c-4.281-1.383-8.531-2.852-12.75-4.391l-5.75-2.141c-4.617-1.781-9.188-3.609-13.719-5.531L592,549.414
	c-5.68-2.469-11.273-5.078-16.781-7.805c-2.844-1.383-5.633-2.844-8.422-4.281l-4.859-2.5c-3.578-1.938-7.141-3.953-10.648-6.016
	l-2.547-1.445c-4.359-2.539-8.641-5.164-12.891-7.875l-3.891-2.594c-2.797-1.812-5.602-3.664-8.352-5.523
	c-5.93-4.094-11.695-8.375-17.391-12.719l-3.914-3.086c-60.562-47.812-108.57-113.172-131.398-187.273
	c-23.922-76.844-18.758-163.109,22.68-233.125l-50.914,71.875c-62.32,89.672-58.93,209.719-10.32,304.555
	C340.5,467.523,349.664,482.953,359.914,497.633L359.914,497.633z M699.031,386.703c2.648,0.977,5.297,1.852,7.984,2.766
	l3.523,1.117c3.781,1.188,7.547,2.57,11.461,3.312c177.648,34.328,225.844-91.164,238.664-109.641
	c-42.211,60.773-113.141,75.359-200.18,54.234c-6.875-1.664-14.438-4.148-21.062-6.5c-8.5-3.031-16.875-6.484-25.008-10.383
	c-15.461-7.43-30.188-16.438-43.844-26.75c-77.883-59.102-126.266-171.828-75.445-263.633l-27.5,37.898
	c-36.734,54.062-40.344,121.203-14.852,180.906C579.656,313.406,634.742,363.117,699.031,386.703L699.031,386.703z"/>
</svg>
