<?xml version="1.0" encoding="utf-8"?>
<!-- Generator: Adobe Illustrator 16.0.0, SVG Export Plug-In . SVG Version: 6.00 Build 0)  -->
<!DOCTYPE svg PUBLIC "-//W3C//DTD SVG 1.1//EN" "http://www.w3.org/Graphics/SVG/1.1/DTD/svg11.dtd">
<svg version="1.1" id="Layer_1" xmlns="http://www.w3.org/2000/svg" xmlns:xlink="http://www.w3.org/1999/xlink" x="0px" y="0px"
	 width="1000px" height="1000px" viewBox="0 0 1000 1000" enable-background="new 0 0 1000 1000" xml:space="preserve">
<path fill="#B1B3A9" d="M706.961,447.516c-2.891-37.422-11.688-73.508-23.922-108.859
	c-25.344-78.938-66.016-148.797-123.305-208.906c-14.484-15.203-30.594-29.133-40.695-48.055
	c-6.391-11.969-12.477-24.102-18.703-36.164l-3.945-9.945c-0.664,2.281-1.086,3.094-1.109,3.914
	c-0.508,19.664-11.648,33-25.523,45.445c-15.602,14.008-30.125,29.211-45.117,43.891c-15.375,20.219-30.742,40.438-46.102,60.648
	c-12.438,22.852-24.859,45.703-37.281,68.555l-24.922,67.32l-0.75,1.047c-13.719,45.062-20.484,91.391-23.812,138.188
	c-1.25,17.586,0.172,35.43,1.164,53.109c1.414,25.273,5.805,50.117,12.391,74.57c23.922,88.844,72.469,162.539,138.836,225.148
	c12.336,11.633,24.992,22.211,37.867,33.281c2.203-7.539,3.961-15.078,5.961-22.617c2-7.508,4.023-14.977,5.375-22.508
	c-1.359,7.531-2.883,15-4.391,22.508l-6.453,22.617l5.766,19.539l5.344,30.344l2.547,31.664c-0.023,6.43-0.281,12.875,0.109,19.297
	c0.094,1.641,2.25,3.156,3.453,4.734l10.75,3.773l11.203,4.359l-1.922-28.148l-0.086-27.719l3.867-42.227l2.805-9.195l8.023-14.219
	c9.906-7.969,20.539-15.203,29.562-24.07c16.328-16.047,32.617-32.297,47.227-49.867c18.961-22.789,35.273-47.664,48.367-74.344
	c8.766-17.844,17.016-36.047,23.844-54.695c6.016-16.438,9.742-33.711,14.484-50.617c0.422-1.219,0.984-2.414,1.25-3.656
	C708.914,540.023,710.562,493.93,706.961,447.516L706.961,447.516z M522.594,833.258l-6.289-13.773L522.594,833.258l9.242,7.891
	L522.594,833.258z"/>
</svg>
