<?xml version="1.0" encoding="utf-8"?>
<!-- Generator: Adobe Illustrator 16.0.0, SVG Export Plug-In . SVG Version: 6.00 Build 0)  -->
<!DOCTYPE svg PUBLIC "-//W3C//DTD SVG 1.1//EN" "http://www.w3.org/Graphics/SVG/1.1/DTD/svg11.dtd">
<svg version="1.1" id="Layer_1" xmlns="http://www.w3.org/2000/svg" xmlns:xlink="http://www.w3.org/1999/xlink" x="0px" y="0px"
	 width="1000px" height="1000px" viewBox="0 0 1000 1000" enable-background="new 0 0 1000 1000" xml:space="preserve">
<path fill="#B1B3A9" d="M980.289,959.242l-20.438-19.82c-19.367-25.719-44.281-48.312-70.43-67.07
	c-20.852-14.969-67.664-35.188-76.367-59.445l-1.602-1.523c14.789-1.672,32.055-7.016,45.703-10.68
	c22.922-6.141,41.844-4.555,65.516-10.664c10.672-3.047,22.648-6.102,30.461-9.148v-6.094
	c-7.812-12.273-18.961-28.523-32.008-39.633c-34.133-29.062-70.633-58.102-108.992-82.32
	c-21.273-13.422-47.195-22.148-69.734-33.531c-7.586-3.836-20.719-5.828-25.734-12.203c-11.852-15.094-18.188-34.234-27.328-51.82
	c-19.133-36.852-37.883-77.094-54.836-115.867c-11.562-26.438-19.086-52.5-33.508-76.219
	c-69.219-113.805-143.711-182.484-259.117-250c-24.57-14.359-54.133-20.023-85.383-27.445c-16.75-1.008-33.523-2.031-50.289-3.055
	c-10.242-4.266-20.891-16.789-30.484-22.867c-38.25-24.156-136.32-76.695-164.641-7.617C-6.805,95.82,37.797,138.352,53.75,160.453
	c11.211,15.484,25.547,32.867,33.539,50.297c5.273,11.461,6.172,22.953,10.68,35.07c11.078,29.859,20.711,62.344,35.055,89.93
	c7.242,13.969,15.227,28.672,24.391,41.156c5.609,7.664,15.234,11.039,16.758,22.867c-9.406,13.172-9.945,33.625-15.234,50.312
	c-23.828,75.117-14.828,168.492,19.82,224.086c10.625,17.078,35.672,53.68,70.117,39.633c30.125-12.266,25.203-50.297,33.82-83.844
	c1.945-7.594-1.445-13.188,6.367-18.289v1.523c7.812,18.289,16.484,36.586,25.641,54.875c20.312,32.711,53.82,66.891,84.359,89.953
	c15.836,11.961,30.625,32.633,46.25,39.633v-0.789h1.727c-3.961-7.812-10.172-9.117-15.234-14.094
	c-11.93-11.688-25.203-26.422-35.055-39.82c-27.781-37.711-52.328-79.078-74.695-122.047c-10.688-20.516-19.977-43.195-28.977-64.07
	c-3.461-8.047-3.422-20.25-10.656-24.414c-9.867,15.297-24.391,27.656-32.023,45.727c-12.195,28.875-13.766,64.094-18.289,100.602
	c-2.68,0.953-1.484,0.297-3.055,1.516c-21.234-5.117-28.688-26.969-36.586-45.727c-19.961-47.422-23.664-123.773-6.102-178.352
	c4.547-14.133,25.086-58.602,16.766-71.656c-3.969-13.008-17.062-20.547-24.383-30.492c-9.07-12.297-18.117-28.484-24.398-42.688
	c-16.336-36.961-23.953-78.469-41.156-115.844c-8.227-17.867-22.125-35.953-33.539-51.828
	c-12.633-17.602-26.789-30.562-36.594-51.836c-3.477-7.562-8.211-19.672-3.047-27.445c1.641-5.242,3.961-7.43,9.148-9.141
	c8.852-6.82,33.461,2.266,42.68,6.086c24.445,10.156,44.852,19.531,65.562,33.25c9.93,6.594,19.992,14.766,32.008,22.578h13.719
	c21.461,0,45.5,1.812,65.555,7.906c35.43,10.773,67.188,27.672,96.031,45.883c87.859,55.484,159.695,134.531,208.844,228.734
	c7.906,15.172,11.328,29.68,18.289,45.766c14.047,32.445,31.75,65.844,45.727,97.57c13.953,31.664,27.547,63.609,47.266,89.953
	c10.367,13.844,50.398,21.281,68.594,28.977c12.758,5.383,33.656,11.008,45.734,18.281c23.07,13.922,45.422,30.5,67.078,45.742
	c10.812,7.609,44.062,24.328,45.727,38.109c-53.617-1.469-94.562,3.531-129.57,18.289c-9.945,4.195-25.82,4.312-27.445,16.773
	c5.469,5.727,6.32,14.289,10.664,21.336c8.352,13.516,22.469,31.656,35.062,41.156c13.766,10.391,27.938,21.492,42.688,30.484
	c26.242,15.992,55.523,25.133,80.789,41.156c14.891,9.453,30.922,21.352,45.43,32.008c7.188,5.273,6.961,13.469,22.586,16.773
	v-1.516C984.375,974.344,984.789,965.766,980.289,959.242z M230.578,183.32c-11.18-0.211-19.641,1.227-27.453,3.039v1.141h1.547
	c5.336,7.812,14.75,18.203,21.336,27.641l15.25,32.094l1.508-1.461c9.445-6.664,13.773-17.273,13.719-33.523
	c-3.773-3.977-4.344-8.953-7.609-13.703C244.516,192.227,236.07,188.641,230.578,183.32L230.578,183.32z"/>
</svg>
