<?xml version="1.0" encoding="utf-8"?>
<!-- Generator: Adobe Illustrator 16.0.0, SVG Export Plug-In . SVG Version: 6.00 Build 0)  -->
<!DOCTYPE svg PUBLIC "-//W3C//DTD SVG 1.1//EN" "http://www.w3.org/Graphics/SVG/1.1/DTD/svg11.dtd">
<svg version="1.1" id="Layer_1" xmlns="http://www.w3.org/2000/svg" xmlns:xlink="http://www.w3.org/1999/xlink" x="0px" y="0px"
	 width="1000px" height="1000px" viewBox="0 0 1000 1000" enable-background="new 0 0 1000 1000" xml:space="preserve">
<g>
	<path fill="#B1B3A9" d="M191.406,394.531c-11.719,0-19.531,9.375-19.531,21.094v110.156l-124.219-125
		c-6.25-6.25-17.188-7.812-25-4.688S7.812,407.031,7.812,415.625v161.719c0,11.719,11.719,21.094,23.438,21.094
		s23.438-9.375,23.438-21.094V467.188l125.781,125c3.906,3.906,9.375,6.25,14.844,6.25c2.344,0,3.125-0.781,5.469-1.562
		c7.812-3.125,10.156-10.938,10.156-19.531V416.406C210.938,404.688,203.125,394.531,191.406,394.531L191.406,394.531z
		 M345.312,486.719c-10.938,0-21.094,10.938-21.094,21.875s10.156,21.875,21.094,21.875l51.562,3.125L385.156,562.5H318.75
		l-32.812-61.719l33.594-63.281h71.094l16.406,31.25H450l-28.125-61.719l-6.25-8.594H293.75l-5.469,9.375l-46.094,80.469
		l-5.469,10.156l5.469,10.156l45.312,80.469l6.25,12.5h117.969l5.469-13.281l33.594-70.312l14.844-33.594H431.25L345.312,486.719
		L345.312,486.719z M507.812,394.531c-10.938,0-23.438,10.156-23.438,21.094v53.125h46.875v-52.344
		C531.25,404.688,518.75,394.531,507.812,394.531z M745.312,396.875c-7.812-3.125-18.75-1.562-24.219,4.688l-127.344,125V416.406
		c0-11.719-7.812-21.094-19.531-21.094s-19.531,9.375-19.531,21.094v161.719c0,8.594,5.469,16.406,13.281,19.531
		c2.344,0.781,5.469,1.562,7.812,1.562c5.469,0,12.5-2.344,16.406-6.25l126.562-125v110.156c0,11.719,7.812,21.094,19.531,21.094
		s19.531-9.375,19.531-21.094V416.406C757.812,407.812,753.125,400,745.312,396.875L745.312,396.875z M915.625,496.875
		l65.625-65.625c8.594-8.594,8.594-21.875,0-29.688c-8.594-8.594-21.875-8.594-29.688,0l-65.625,65.625l-65.625-65.625
		c-8.594-8.594-21.875-8.594-29.688,0c-8.594,8.594-8.594,21.875,0,29.688l65.625,65.625L790.625,562.5
		c-8.594,8.594-8.594,21.875,0,29.688c3.906,3.906,9.375,6.25,14.844,6.25s10.938-2.344,14.844-6.25l65.625-65.625l65.625,65.625
		c3.906,3.906,9.375,6.25,14.844,6.25s10.938-2.344,14.844-6.25c8.594-8.594,8.594-21.875,0-29.688L915.625,496.875L915.625,496.875
		z M484.375,577.344c0,10.938,11.719,21.094,23.438,21.094c10.938,0,23.438-10.156,23.438-21.094v-92.969h-46.875V577.344z"/>
</g>
</svg>
