<?xml version="1.0" encoding="utf-8"?>
<!-- Generator: Adobe Illustrator 16.0.0, SVG Export Plug-In . SVG Version: 6.00 Build 0)  -->
<!DOCTYPE svg PUBLIC "-//W3C//DTD SVG 1.1//EN" "http://www.w3.org/Graphics/SVG/1.1/DTD/svg11.dtd">
<svg version="1.1" id="Layer_1" xmlns="http://www.w3.org/2000/svg" xmlns:xlink="http://www.w3.org/1999/xlink" x="0px" y="0px"
	 width="1000px" height="1000px" viewBox="0 0 1000 1000" enable-background="new 0 0 1000 1000" xml:space="preserve">
<path fill="#B1B3A9" d="M880.297,236.984L535.43,36.945c-21.727-12.375-50.188-12.375-72.086,0L115.781,236.984
	c-22.414,12.898-37.656,37.141-37.656,63.07v399.547c0,25.93,15.562,50.18,37.984,63.148L207.742,815
	c43.961,21.656,56.141,21.656,76.141,21.656c65.109,0,98.922-39.367,98.922-108.031V334.172c0.008-5.57,3.484-13.859-1.992-13.859
	h-43.922c-5.562,0-16.578,8.289-16.578,13.852v394.453c0,30.438-28.25,60.727-79.703,35l-94.703-54.789
	c-3.297-1.797-5.281-5.414-5.281-9.227V300.055c0-3.766,3.617-7.547,6.961-9.477L494.289,90.883c3.242-1.836,7.828-1.836,11.055,0
	l343.461,199.648c3.289,1.977,2.766,5.641,2.766,9.523v399.547c0,3.812,0.719,7.523-2.523,9.359L504.258,908.773
	c-2.953,1.773-6.797,1.773-10.039,0l-88.414-52.727c-2.664-1.547-5.875-2.102-8.438-0.672c-24.57,13.93-29.133,15.781-52.18,23.773
	c-5.68,1.977-14.055,5.406,3.188,15.07l115.609,68.391c11.062,6.406,23.648,9.734,36.305,9.734c12.828,0,25.383-3.328,36.453-9.734
	L880.305,762.75c22.43-13.062,33.766-37.219,33.766-63.148V300.055C914.062,274.125,902.727,249.945,880.297,236.984z
	 M607.242,636.289c-91.617,0-111.789-25.273-118.516-70.828c-0.797-4.906-4.953-10.773-9.953-10.773h-44.766
	c-5.539,0-10,6.719-10,12.234c0,58.328,31.719,129,183.234,129c109.672,0,172.562-42.617,172.562-118.039
	c0-74.781-50.523-94.406-156.891-108.484c-107.516-14.211-118.438-21.391-118.438-46.578c0-20.766,9.25-48.461,88.859-48.461
	c71.125,0,97.344,15.266,108.133,63.211c0.93,4.508,5.047,7.742,9.695,7.742h44.953c2.766,0,5.398-1.117,7.336-3.094
	c1.883-2.125,2.867-4.789,2.625-7.648c-6.977-82.57-61.82-121.047-172.75-121.047c-98.688,0-157.547,41.672-157.547,111.523
	c0,75.766,58.57,96.703,153.297,106.07c113.32,11.109,122.133,27.672,122.133,49.961
	C711.211,619.797,680.133,636.289,607.242,636.289z"/>
</svg>
