<?xml version="1.0" encoding="utf-8"?>
<!-- Generator: Adobe Illustrator 16.0.0, SVG Export Plug-In . SVG Version: 6.00 Build 0)  -->
<!DOCTYPE svg PUBLIC "-//W3C//DTD SVG 1.1//EN" "http://www.w3.org/Graphics/SVG/1.1/DTD/svg11.dtd">
<svg version="1.1" id="Layer_1" xmlns="http://www.w3.org/2000/svg" xmlns:xlink="http://www.w3.org/1999/xlink" x="0px" y="0px"
	 width="1000px" height="1000px" viewBox="0 0 1000 1000" enable-background="new 0 0 1000 1000" xml:space="preserve">
<path fill="#B1B3A9" d="M500,258.117C236.406,258.117,22.703,366.414,22.703,500S236.406,741.883,500,741.883
	S977.297,633.586,977.297,500S763.594,258.117,500,258.117z M375.805,547.125c-11.391,10.656-24.039,15.055-37.969,19.586
	c-13.93,4.539-31.656,3.602-53.211,3.602h-48.852l-13.539,78.125h-57.039l50.898-265.625h109.688c33,0,57.07,9.492,72.203,26.812
	s19.68,41.906,13.648,72.945c-2.492,12.789-6.688,24.68-12.609,35.273C393.094,528.445,385.352,538.344,375.805,547.125z
	 M542.297,570.312l22.508-112.656c2.562-13.188,1.625-22.984-2.82-27.773c-4.453-4.797-13.922-8.008-28.398-8.008h-45.234
	l-29.148,148.438h-56.594L453.508,312.5h56.594l-13.531,70.312h50.414c31.727,0,53.602,6.367,65.641,17.43s15.648,26.219,10.836,51
	l-23.68,119.07H542.297z M856.82,482.984c-2.484,12.789-6.688,24.477-12.602,35.062c-5.922,10.602-13.656,20.297-23.211,29.078
	c-11.391,10.656-24.047,15.055-37.969,19.586c-13.922,4.539-31.664,3.602-53.219,3.602h-48.852l-13.531,78.125h-57.039
	l50.891-265.625h109.695c33,0,57.07,9.492,72.195,26.812C858.297,426.945,862.852,451.953,856.82,482.984z M749.367,421.875h-39.07
	L688.992,531.25h34.703c22.984,0,40.125-2.266,51.375-10.938c11.266-8.656,18.852-22.094,22.797-42.352
	c3.781-19.461,2.062-34.641-5.156-42.641C785.484,427.32,771.039,421.875,749.367,421.875L749.367,421.875z M304.172,421.875
	h-39.078L243.789,531.25h34.695c22.992,0,40.125-2.266,51.383-10.938c11.258-8.656,18.852-22.094,22.789-42.352
	c3.781-19.461,2.062-34.641-5.156-42.641S325.844,421.875,304.172,421.875L304.172,421.875z"/>
</svg>
