<?xml version="1.0" encoding="utf-8"?>
<!-- Generator: Adobe Illustrator 16.0.0, SVG Export Plug-In . SVG Version: 6.00 Build 0)  -->
<!DOCTYPE svg PUBLIC "-//W3C//DTD SVG 1.1//EN" "http://www.w3.org/Graphics/SVG/1.1/DTD/svg11.dtd">
<svg version="1.1" id="Layer_1" xmlns="http://www.w3.org/2000/svg" xmlns:xlink="http://www.w3.org/1999/xlink" x="0px" y="0px"
	 width="1000px" height="1000px" viewBox="0 0 1000 1000" enable-background="new 0 0 1000 1000" xml:space="preserve">
<g>
	<circle fill="#B1B3A9" cx="500" cy="500" r="89.062"/>
	<path fill="#B1B3A9" d="M838.281,353.125c-17.188-6.25-35.156-12.5-53.906-17.969c4.688-18.75,8.594-37.5,11.719-55.469
		c16.406-103.125-1.562-175.781-51.562-203.906c-14.844-8.594-31.25-12.5-50-12.5c-54.688,0-124.219,40.625-194.531,108.594
		C429.688,103.906,360.156,63.281,305.469,63.281c-18.75,0-35.156,3.906-50,12.5c-50,28.906-67.969,101.562-51.562,203.906
		c3.125,17.969,7.031,36.719,11.719,55.469c-18.75,5.469-36.719,10.938-53.906,17.969C64.062,390.625,10.938,442.188,10.938,500
		s53.906,109.375,150.781,146.875c17.188,6.25,35.156,12.5,53.906,17.969c-4.688,18.75-8.594,37.5-11.719,55.469
		c-16.406,103.125,1.562,175.781,51.562,203.906c14.844,8.594,31.25,12.5,50,12.5c55.469,0,125-40.625,194.531-108.594
		c70.312,67.969,139.844,108.594,194.531,108.594c18.75,0,35.156-3.906,50-12.5c50-28.906,67.969-101.562,51.562-203.906
		c-3.125-17.969-7.031-36.719-11.719-55.469c18.75-5.469,36.719-10.938,53.906-17.969c97.656-37.5,150.781-89.062,150.781-146.875
		S935.938,390.625,838.281,353.125z M722.656,114.844c32.031,18.75,42.969,76.562,29.688,158.594
		c-2.344,16.406-6.25,33.594-10.938,51.562c-40.625-9.375-83.594-15.625-128.906-19.531c-26.562-37.5-53.906-71.094-81.25-101.562
		c57.812-57.031,116.406-96.094,164.062-96.094C705.469,107.812,714.844,110.156,722.656,114.844z M635.156,578.125
		c-14.062,25-30.469,50-47.656,75c-28.906,2.344-57.812,3.125-87.5,3.125c-30.469,0-59.375-0.781-87.5-3.125
		c-17.188-25-32.812-50-46.875-75c-14.844-25.781-28.906-52.344-41.406-78.125c12.5-25.781,26.562-52.344,41.406-78.125
		c14.062-25,30.469-50,47.656-75c28.906-2.344,57.812-3.125,87.5-3.125c30.469,0,59.375,0.781,87.5,3.125
		c17.188,25,32.812,50,46.875,75C650,447.656,664.062,474.219,676.562,500C663.281,525.781,650,551.562,635.156,578.125z
		 M700,552.344c11.719,27.344,21.094,53.906,29.688,80.469c-26.562,6.25-54.688,10.938-84.375,14.844
		c9.375-14.844,19.531-30.469,28.125-46.875C682.812,584.375,691.406,567.969,700,552.344L700,552.344z M500,764.062
		c-18.75-20.312-36.719-42.188-53.906-64.844c17.969,0.781,35.938,1.562,53.906,1.562s35.938-0.781,53.906-1.562
		C536.719,721.875,518.75,743.75,500,764.062z M354.688,646.875c-29.688-3.906-57.812-8.594-84.375-14.844
		c8.594-25.781,17.969-53.125,29.688-80.469c8.594,15.625,17.188,32.031,26.562,47.656
		C335.938,616.406,345.312,631.25,354.688,646.875L354.688,646.875z M300,447.656c-11.719-27.344-21.094-53.906-29.688-80.469
		c26.562-6.25,54.688-10.938,84.375-14.844c-9.375,14.844-19.531,30.469-28.125,46.875C317.188,415.625,308.594,432.031,300,447.656
		z M500,235.938c18.75,20.312,36.719,42.188,53.906,64.844c-17.969-0.781-35.938-1.562-53.906-1.562s-35.938,0.781-53.906,1.562
		C463.281,278.125,481.25,256.25,500,235.938L500,235.938z M673.438,400l-28.125-46.875c29.688,3.906,57.812,8.594,84.375,14.844
		c-8.594,25.781-17.969,53.125-29.688,80.469C691.406,432.031,682.812,415.625,673.438,400z M247.656,273.438
		c-13.281-82.031-2.344-139.844,29.688-158.594c7.812-4.688,17.188-7.031,27.344-7.031c46.875,0,105.469,38.281,164.062,96.094
		c-27.344,29.688-54.688,64.062-81.25,101.562c-45.312,3.906-88.281,10.938-128.906,19.531
		C253.906,307.031,250.781,289.844,247.656,273.438L247.656,273.438z M54.688,500c0-36.719,44.531-75.781,122.656-104.688
		c15.625-6.25,32.812-11.719,50-16.406c12.5,39.062,28.125,80.469,46.875,121.875c-18.75,41.406-35.156,82.031-46.875,121.094
		C119.531,590.625,54.688,543.75,54.688,500L54.688,500z M277.344,885.156c-32.031-18.75-42.969-76.562-29.688-158.594
		c2.344-16.406,6.25-33.594,10.938-51.562c40.625,9.375,83.594,15.625,128.906,19.531c26.562,37.5,53.906,71.094,81.25,101.562
		c-57.812,57.031-116.406,96.094-164.062,96.094C294.531,892.188,285.156,889.844,277.344,885.156L277.344,885.156z
		 M752.344,726.562c13.281,82.031,2.344,139.844-29.688,158.594c-7.812,4.688-17.188,7.031-27.344,7.031
		c-46.875,0-105.469-38.281-164.062-96.094c27.344-29.688,54.688-64.062,81.25-101.562c45.312-3.906,88.281-10.938,128.906-19.531
		C746.094,692.969,749.219,710.156,752.344,726.562z M822.656,604.688c-15.625,6.25-32.812,11.719-50,16.406
		c-12.5-39.062-28.125-80.469-46.875-121.875c18.75-41.406,35.156-82.031,46.875-121.094
		C880.469,409.375,945.312,456.25,945.312,500C945.312,536.719,900,575.781,822.656,604.688z"/>
</g>
</svg>
