<?xml version="1.0" encoding="utf-8"?>
<!-- Generator: Adobe Illustrator 16.0.0, SVG Export Plug-In . SVG Version: 6.00 Build 0)  -->
<!DOCTYPE svg PUBLIC "-//W3C//DTD SVG 1.1//EN" "http://www.w3.org/Graphics/SVG/1.1/DTD/svg11.dtd">
<svg version="1.1" id="Layer_1" xmlns="http://www.w3.org/2000/svg" xmlns:xlink="http://www.w3.org/1999/xlink" x="0px" y="0px"
	 width="1000px" height="1000px" viewBox="0 0 1000 1000" enable-background="new 0 0 1000 1000" xml:space="preserve">
<g>
	<path fill="#B1B3A9" d="M267.734,852.984c-27.906,0-66.797,29.102-66.797,61.594c0,16.055,10,23.75,24.492,23.75
		c26.828,0,69.016-28.125,69.016-62.344c-0.016-16.844-11.812-23-26.719-23H267.734z M360.484,225.914
		c0-28.609-20.266-50.469-50.469-50.469c-28.32,0-51.195,21.859-51.195,50.469c0,26.82,21.766,51.203,50.453,51.203
		c27.109,0,51.203-21.352,51.203-51.195L360.484,225.914z M499.258,106.438c0-21.797-14.258-49.719-44.531-49.719
		c-27.531,0-41.547,24.203-41.547,46.016c0,21.078,14.906,51.938,44.531,51.938C485.242,154.672,499.258,127.531,499.258,106.438z
		 M377.969,914.578c-25.234,0-59.945,33-59.945,57.891c0,12.641,5.234,19.297,19,19.297c17.992,0,43.984-15.258,55.188-37.852
		c2.219-4.438,6.211-11.93,6.211-13.359v-12.609c-7.812-10.523-13.07-13.359-20.469-13.359L377.969,914.578z M222.461,759.477
		c0-21.797-16.141-30.422-34.141-30.422c-26.312,0-71.977,25.281-71.977,61.586c0,20.5,13.961,29.688,33.391,29.688
		c24.883,0,72.734-22.562,72.734-60.859L222.461,759.477z M190.547,454.477c26.406,0,63.078-18.219,63.078-55.656
		c0-28.266-23.305-46.016-48.984-46.016c-27.891,0-63.812,19.375-63.812,55.656C140.828,436.367,163.367,454.477,190.547,454.477z
		 M204.648,590.281c0-25.977-21.195-37.844-43.781-37.844c-1.422,0-2.5-0.438-8.156,0c-32.633,2.734-63.078,30.828-63.078,59.375
		c0,26.672,24.25,37.836,45.266,37.836c27.188,0,69.766-20.859,69.766-59.375L204.648,590.281z M829.484,73.789
		c-19.867,0-26.719,30.844-26.719,40.812c0,9.891,3.422,31.898,20.781,31.898c20.367,0,26.719-30.844,26.719-40.812
		c0-8.391-4.5-31.914-20.781-31.914V73.789z M732.266,18.125c-23.086,0-30.414,28.906-30.414,42.305
		c0,8.828,5.438,40.281,27.461,40.078c22.031-0.234,30.422-28.852,30.422-43.047c0-11.039-5.312-39.328-27.461-39.328
		L732.266,18.125z M894.047,155.414c-18.359,0-25.234,30.156-25.234,39.328c0,7.672,2.938,25.977,17.07,25.977
		c17.852,0,24.492-29.414,24.492-38.594c0-6.094-2.695-26.719-16.328-26.719V155.414z M701.109,832.945
		c-20.938,0-35.625,31.984-35.625,44.531c0,6.531,1.672,13.359,11.141,13.359c20.719,0,35.625-31.484,35.625-44.531
		C712.234,840.195,710,832.945,701.109,832.945z M493.32,924.219c-23.672,0-51.203,31.625-51.203,53.438
		c0,3.203,0.062,9.477,5.938,13.359c6.156,4.023,17.156,4.398,30.43-4.453c17.812-11.891,29.688-32.914,29.688-46.758
		c0-7.602-4.867-15.578-14.844-15.586H493.32z M603.148,6.25c-25.234,0-34.875,29.953-34.875,46.016
		c0,16.852,12.422,46.016,37.094,46.016c25.039,0,34.609-29.922,34.141-45.273C638.922,33.359,630.68,6.25,603.141,6.25H603.148z
		 M603.148,893.047c-22.945,0-42.297,32.891-42.297,49.727c0,8.477,3.859,13.359,12.609,13.359c20.727,0,42.297-31.75,42.297-48.234
		c0-7.242-1.484-14.844-12.617-14.844L603.148,893.047z"/>
</g>
</svg>
